<svg width="48" height="48" viewBox="0 0 48 48" fill="none" xmlns="http://www.w3.org/2000/svg">
<g clip-path="url(#clip0_4766_38474)">
<mask id="mask0_4766_38474" style="mask-type:luminance" maskUnits="userSpaceOnUse" x="14" y="10" width="20" height="27">
<path d="M26.5 10H15.875C14.8438 10 14 10.8284 14 11.8409V35.1591C14 36.1716 14.8438 37 15.875 37H32.125C33.1562 37 34 36.1716 34 35.1591V17.3636L26.5 10Z" fill="white"/>
</mask>
<g mask="url(#mask0_4766_38474)">
<path d="M26.5 10H15.875C14.8438 10 14 10.8284 14 11.8409V35.1591C14 36.1716 14.8438 37 15.875 37H32.125C33.1562 37 34 36.1716 34 35.1591V17.3636L29.625 14.2955L26.5 10Z" fill="#4285F4"/>
</g>
<mask id="mask1_4766_38474" style="mask-type:luminance" maskUnits="userSpaceOnUse" x="14" y="10" width="20" height="27">
<path d="M26.5 10H15.875C14.8438 10 14 10.8284 14 11.8409V35.1591C14 36.1716 14.8438 37 15.875 37H32.125C33.1562 37 34 36.1716 34 35.1591V17.3636L26.5 10Z" fill="white"/>
</mask>
<g mask="url(#mask1_4766_38474)">
<path d="M27.0485 16.8252L34 23.6488V17.3636L27.0485 16.8252Z" fill="url(#paint0_linear_4766_38474)"/>
</g>
<mask id="mask2_4766_38474" style="mask-type:luminance" maskUnits="userSpaceOnUse" x="14" y="10" width="20" height="27">
<path d="M26.5 10H15.875C14.8438 10 14 10.8284 14 11.8409V35.1591C14 36.1716 14.8438 37 15.875 37H32.125C33.1562 37 34 36.1716 34 35.1591V17.3636L26.5 10Z" fill="white"/>
</mask>
<g mask="url(#mask2_4766_38474)">
<path d="M19 29.6364H29V28.4091H19V29.6364ZM19 32.0909H26.5V30.8636H19V32.0909ZM19 23.5V24.7273H29V23.5H19ZM19 27.1818H29V25.9545H19V27.1818Z" fill="#F1F1F1"/>
</g>
<mask id="mask3_4766_38474" style="mask-type:luminance" maskUnits="userSpaceOnUse" x="14" y="10" width="20" height="27">
<path d="M26.5 10H15.875C14.8438 10 14 10.8284 14 11.8409V35.1591C14 36.1716 14.8438 37 15.875 37H32.125C33.1562 37 34 36.1716 34 35.1591V17.3636L26.5 10Z" fill="white"/>
</mask>
<g mask="url(#mask3_4766_38474)">
<path d="M26.5 10V15.5227C26.5 16.5398 27.3391 17.3636 28.375 17.3636H34L26.5 10Z" fill="#A1C2FA"/>
</g>
<mask id="mask4_4766_38474" style="mask-type:luminance" maskUnits="userSpaceOnUse" x="14" y="10" width="20" height="27">
<path d="M26.5 10H15.875C14.8438 10 14 10.8284 14 11.8409V35.1591C14 36.1716 14.8438 37 15.875 37H32.125C33.1562 37 34 36.1716 34 35.1591V17.3636L26.5 10Z" fill="white"/>
</mask>
<g mask="url(#mask4_4766_38474)">
<path d="M15.875 10C14.8438 10 14 10.8284 14 11.8409V11.9943C14 10.9818 14.8438 10.1534 15.875 10.1534H26.5V10H15.875Z" fill="white" fill-opacity="0.2"/>
</g>
<mask id="mask5_4766_38474" style="mask-type:luminance" maskUnits="userSpaceOnUse" x="14" y="10" width="20" height="27">
<path d="M26.5 10H15.875C14.8438 10 14 10.8284 14 11.8409V35.1591C14 36.1716 14.8438 37 15.875 37H32.125C33.1562 37 34 36.1716 34 35.1591V17.3636L26.5 10Z" fill="white"/>
</mask>
<g mask="url(#mask5_4766_38474)">
<path d="M32.125 36.8466H15.875C14.8438 36.8466 14 36.0182 14 35.0057V35.1591C14 36.1716 14.8438 37 15.875 37H32.125C33.1562 37 34 36.1716 34 35.1591V35.0057C34 36.0182 33.1562 36.8466 32.125 36.8466Z" fill="#1A237E" fill-opacity="0.2"/>
</g>
<mask id="mask6_4766_38474" style="mask-type:luminance" maskUnits="userSpaceOnUse" x="14" y="10" width="20" height="27">
<path d="M26.5 10H15.875C14.8438 10 14 10.8284 14 11.8409V35.1591C14 36.1716 14.8438 37 15.875 37H32.125C33.1562 37 34 36.1716 34 35.1591V17.3636L26.5 10Z" fill="white"/>
</mask>
<g mask="url(#mask6_4766_38474)">
<path d="M28.375 17.3636C27.3391 17.3636 26.5 16.5398 26.5 15.5227V15.6761C26.5 16.6932 27.3391 17.5171 28.375 17.5171H34V17.3636H28.375Z" fill="#1A237E" fill-opacity="0.1"/>
</g>
<path d="M26.5 10H15.875C14.8438 10 14 10.8284 14 11.8409V35.1591C14 36.1716 14.8438 37 15.875 37H32.125C33.1562 37 34 36.1716 34 35.1591V17.3636L26.5 10Z" fill="url(#paint1_radial_4766_38474)"/>
</g>
<defs>
<linearGradient id="paint0_linear_4766_38474" x1="374.664" y1="75.4136" x2="374.664" y2="699.284" gradientUnits="userSpaceOnUse">
<stop stop-color="#1A237E" stop-opacity="0.2"/>
<stop offset="1" stop-color="#1A237E" stop-opacity="0.02"/>
</linearGradient>
<radialGradient id="paint1_radial_4766_38474" cx="0" cy="0" r="1" gradientUnits="userSpaceOnUse" gradientTransform="translate(77.361 63.056) scale(3224.97 3148.07)">
<stop stop-color="white" stop-opacity="0.1"/>
<stop offset="1" stop-color="white" stop-opacity="0"/>
</radialGradient>
<clipPath id="clip0_4766_38474">
<rect width="20" height="27" fill="white" transform="translate(14 10)"/>
</clipPath>
</defs>
</svg>
