<svg width="48" height="48" viewBox="0 0 48 48" fill="none" xmlns="http://www.w3.org/2000/svg">
<g clip-path="url(#clip0_4766_38849)">
<path d="M38 25.125C38.0015 24.9149 37.8884 24.7193 37.7018 24.6094H37.6985L37.6868 24.6031L27.9845 19.0906C27.9426 19.0635 27.8991 19.0386 27.8542 19.0163C27.4796 18.8308 27.0346 18.8308 26.66 19.0163C26.6151 19.0386 26.5716 19.0635 26.5297 19.0906L16.8275 24.6031L16.8157 24.6094C16.5192 24.7864 16.4283 25.1606 16.6127 25.4452C16.667 25.5291 16.7419 25.5989 16.8307 25.6488L26.533 31.1612C26.5751 31.1882 26.6185 31.213 26.6633 31.2356C27.0379 31.4211 27.4829 31.4211 27.8575 31.2356C27.9022 31.213 27.9457 31.1882 27.9877 31.1612L37.6901 25.6488C37.8839 25.5403 38.0022 25.3404 38 25.125Z" fill="#0A2767"/>
<path d="M17.9585 21.4444H24.3255V27.0462H17.9585V21.4444ZM36.6976 15.75V13.1875C36.7129 12.5468 36.1846 12.0154 35.5171 12H18.9945C18.327 12.0154 17.7986 12.5468 17.8139 13.1875V15.75L27.5814 18.25L36.6976 15.75Z" fill="#0364B8"/>
<path d="M17.814 15.75H24.3256V21.375H17.814V15.75Z" fill="#0078D4"/>
<path d="M30.8372 15.75H24.3256V21.375L30.8372 27H36.6977V21.375L30.8372 15.75Z" fill="#28A8EA"/>
<path d="M24.3256 21.375H30.8372V27H24.3256V21.375Z" fill="#0078D4"/>
<path d="M24.3256 27H30.8372V32.625H24.3256V27Z" fill="#0364B8"/>
<path d="M17.9585 27.0462H24.3256V32.1387H17.9585V27.0462Z" fill="#14447D"/>
<path d="M30.8372 27H36.6977V32.625H30.8372V27Z" fill="#0078D4"/>
<path d="M37.7017 25.6144L37.6893 25.6206L27.987 30.8581C27.9447 30.8831 27.9017 30.9069 27.8568 30.9281C27.692 31.0034 27.513 31.046 27.3307 31.0531L26.8006 30.7556C26.7558 30.734 26.7123 30.71 26.6704 30.6837L16.8378 25.2975H16.8333L16.5116 25.125V35.7275C16.5166 36.4349 17.1179 37.0045 17.8549 37H36.6774C36.6885 37 36.6983 36.995 36.71 36.995C36.8657 36.9854 37.0191 36.9547 37.1658 36.9037C37.2292 36.878 37.2904 36.8475 37.3488 36.8125C37.3924 36.7888 37.4673 36.7369 37.4673 36.7369C37.8009 36.5 37.9983 36.1258 37.9999 35.7275V25.125C37.9997 25.3278 37.8858 25.5148 37.7017 25.6144Z" fill="url(#paint0_linear_4766_38849)"/>
<path opacity="0.5" d="M37.4791 25.0831V25.7331L27.334 32.4375L16.8307 25.3019C16.8307 25.2984 16.8278 25.2956 16.8242 25.2956L15.8605 24.7394V24.2706L16.2577 24.2643L17.0977 24.7268L17.1172 24.7331L17.1888 24.7769C17.1888 24.7769 27.0604 30.1831 27.0865 30.1956L27.4642 30.4081C27.4967 30.3956 27.5293 30.3831 27.5683 30.3706C27.5879 30.3581 37.3683 25.0768 37.3683 25.0768L37.4791 25.0831Z" fill="#0A2767"/>
<path d="M37.7018 25.6144L37.6894 25.6212L27.9871 30.8587C27.9447 30.8837 27.9018 30.9075 27.8568 30.9287C27.48 31.1054 27.0394 31.1054 26.6626 30.9287C26.618 30.9075 26.5745 30.8842 26.5324 30.8587L16.8301 25.6212L16.8184 25.6144C16.631 25.5169 16.5136 25.3295 16.5117 25.125V35.7275C16.5163 36.4348 17.1174 37.0045 17.8543 37C17.8543 37 17.8543 37 17.8544 37H36.6573C37.3942 37.0045 37.9953 36.4348 38 35.7276C38 35.7276 38 35.7275 38 35.7275V25.125C37.9998 25.3278 37.8858 25.5148 37.7018 25.6144Z" fill="#1490DF"/>
<path opacity="0.1" d="M28.1284 30.7812L27.9832 30.8593C27.9411 30.8851 27.8976 30.9086 27.8529 30.93C27.693 31.0053 27.519 31.0495 27.3411 31.06L31.0326 35.25L37.4719 36.7393C37.6484 36.6114 37.7887 36.4432 37.8802 36.25L28.1284 30.7812Z" fill="black"/>
<path opacity="0.05" d="M28.786 30.4262L27.9832 30.8594C27.9411 30.8851 27.8976 30.9087 27.8529 30.93C27.693 31.0054 27.519 31.0495 27.3411 31.06L29.0706 35.6369L37.4739 36.7375C37.8049 36.4989 37.9998 36.1248 38 35.7275V35.5906L28.786 30.4262Z" fill="black"/>
<path d="M17.8726 37H36.6554C36.9444 37.0014 37.2263 36.9138 37.4595 36.75L26.8 30.7569C26.7552 30.7353 26.7117 30.7113 26.6698 30.685L16.8372 25.2987H16.8327L16.5117 25.125V35.6912C16.5109 36.4134 17.1202 36.9993 17.8726 37V37Z" fill="#28A8EA"/>
<path opacity="0.1" d="M25.6279 18.1456V31.4769C25.6267 31.9443 25.3306 32.3644 24.879 32.5394C24.7391 32.5971 24.5885 32.6268 24.4362 32.6269H16.5116V17.625H17.8139V17H24.4363C25.0941 17.0024 25.6264 17.5142 25.6279 18.1456Z" fill="black"/>
<path opacity="0.2" d="M24.9767 18.7706V32.1018C24.9784 32.2528 24.945 32.4023 24.879 32.5393C24.6982 32.9672 24.2661 33.2478 23.7851 33.25H16.5116V17.625H23.7851C23.974 17.6232 24.1602 17.6684 24.3255 17.7562C24.7247 17.9493 24.9766 18.3416 24.9767 18.7706Z" fill="black"/>
<path opacity="0.2" d="M24.9767 18.7706V30.8519C24.9735 31.483 24.4426 31.9945 23.7851 32H16.5116V17.625H23.7851C23.974 17.6232 24.1602 17.6684 24.3255 17.7562C24.7247 17.9493 24.9766 18.3416 24.9767 18.7706Z" fill="black"/>
<path opacity="0.2" d="M24.3255 18.7706V30.8519C24.3248 31.484 23.7925 31.9969 23.1339 32H16.5116V17.625H23.1339C23.7924 17.6253 24.3259 18.138 24.3255 18.77C24.3255 18.7702 24.3255 18.7704 24.3255 18.7706Z" fill="black"/>
<path d="M11.1936 17.625H23.132C23.7912 17.625 24.3256 18.1379 24.3256 18.7706V30.2294C24.3256 30.8621 23.7912 31.375 23.132 31.375H11.1936C10.5344 31.375 10 30.8621 10 30.2294V18.7706C10 18.1379 10.5344 17.625 11.1936 17.625Z" fill="url(#paint1_linear_4766_38849)"/>
<path d="M13.7305 22.43C14.0247 21.8284 14.4995 21.325 15.0941 20.9844C15.7525 20.6226 16.5021 20.4422 17.2605 20.4631C17.9634 20.4485 18.6569 20.6195 19.2654 20.9575C19.8375 21.285 20.2983 21.7648 20.5918 22.3387C20.9115 22.9712 21.0708 23.6672 21.0568 24.37C21.0723 25.1045 20.9084 25.8322 20.5782 26.495C20.2777 27.0894 19.8023 27.5864 19.2107 27.9243C18.5788 28.2727 17.8595 28.4482 17.1309 28.4319C16.413 28.4485 15.7042 28.2755 15.0817 27.9318C14.5046 27.6039 14.0381 27.1236 13.7377 26.5481C13.4162 25.9248 13.255 25.2366 13.2676 24.5412C13.2542 23.813 13.4124 23.0913 13.7305 22.43ZM15.1839 25.8237C15.3408 26.204 15.6068 26.5339 15.951 26.775C16.3016 27.0102 16.7215 27.1316 17.1491 27.1212C17.6046 27.1385 18.0535 27.013 18.428 26.7637C18.7679 26.5234 19.0269 26.1927 19.1729 25.8125C19.3362 25.3879 19.4168 24.9381 19.4106 24.4856C19.4157 24.0288 19.3399 23.5744 19.1866 23.1419C19.0512 22.7514 18.8006 22.407 18.4651 22.1506C18.1 21.8895 17.6523 21.7571 17.1973 21.7756C16.7604 21.7648 16.3311 21.8871 15.9712 22.125C15.6211 22.3671 15.3501 22.6999 15.1898 23.0844C14.8342 23.9657 14.8323 24.9424 15.1846 25.825L15.1839 25.8237Z" fill="white"/>
<path d="M30.8372 15.75H36.6977V21.375H30.8372V15.75Z" fill="#50D9FF"/>
</g>
<defs>
<linearGradient id="paint0_linear_4766_38849" x1="27.2558" y1="25.125" x2="27.2558" y2="37" gradientUnits="userSpaceOnUse">
<stop stop-color="#35B8F1"/>
<stop offset="1" stop-color="#28A8EA"/>
</linearGradient>
<linearGradient id="paint1_linear_4766_38849" x1="12.4886" y1="16.7298" x2="21.2738" y2="32.5822" gradientUnits="userSpaceOnUse">
<stop stop-color="#1784D9"/>
<stop offset="0.5" stop-color="#107AD5"/>
<stop offset="1" stop-color="#0A63C9"/>
</linearGradient>
<clipPath id="clip0_4766_38849">
<rect width="28" height="25" fill="white" transform="translate(10 12)"/>
</clipPath>
</defs>
</svg>
