<svg width="48" height="48" viewBox="0 0 48 48" fill="none" xmlns="http://www.w3.org/2000/svg">
<mask id="mask0_4766_38692" style="mask-type:luminance" maskUnits="userSpaceOnUse" x="13" y="10" width="22" height="28">
<path d="M26.5215 10H15.8024C14.762 10 13.9108 10.8591 13.9108 11.9091V36.0909C13.9108 37.1409 14.762 38 15.8024 38H32.1964C33.2367 38 34.088 37.1409 34.088 36.0909V17.6364L26.5215 10Z" fill="white"/>
</mask>
<g mask="url(#mask0_4766_38692)">
<path d="M26.5216 10H15.8024C14.7621 10 13.9108 10.8591 13.9108 11.9091V36.0909C13.9108 37.1409 14.7621 38 15.8024 38H32.1964C33.2368 38 34.088 37.1409 34.088 36.0909V17.6364L29.6743 14.4545L26.5216 10Z" fill="#0F9D58"/>
</g>
<mask id="mask1_4766_38692" style="mask-type:luminance" maskUnits="userSpaceOnUse" x="13" y="10" width="22" height="28">
<path d="M26.5215 10H15.8024C14.762 10 13.9108 10.8591 13.9108 11.9091V36.0909C13.9108 37.1409 14.762 38 15.8024 38H32.1964C33.2367 38 34.088 37.1409 34.088 36.0909V17.6364L26.5215 10Z" fill="white"/>
</mask>
<g mask="url(#mask1_4766_38692)">
<path d="M18.955 23.6823V32.9095H29.0436V23.6823H18.955ZM23.3687 31.6368H20.216V30.0459H23.3687V31.6368ZM23.3687 29.0913H20.216V27.5004H23.3687V29.0913ZM23.3687 26.5459H20.216V24.955H23.3687V26.5459ZM27.7825 31.6368H24.6298V30.0459H27.7825V31.6368ZM27.7825 29.0913H24.6298V27.5004H27.7825V29.0913ZM27.7825 26.5459H24.6298V24.955H27.7825V26.5459Z" fill="#F1F1F1"/>
</g>
<mask id="mask2_4766_38692" style="mask-type:luminance" maskUnits="userSpaceOnUse" x="13" y="10" width="22" height="28">
<path d="M26.5215 10H15.8024C14.762 10 13.9108 10.8591 13.9108 11.9091V36.0909C13.9108 37.1409 14.762 38 15.8024 38H32.1964C33.2367 38 34.088 37.1409 34.088 36.0909V17.6364L26.5215 10Z" fill="white"/>
</mask>
<g mask="url(#mask2_4766_38692)">
<path d="M27.0747 17.079L34.0879 24.1554V17.6374L27.0747 17.079Z" fill="url(#paint0_linear_4766_38692)"/>
</g>
<mask id="mask3_4766_38692" style="mask-type:luminance" maskUnits="userSpaceOnUse" x="13" y="10" width="22" height="28">
<path d="M26.5215 10H15.8024C14.762 10 13.9108 10.8591 13.9108 11.9091V36.0909C13.9108 37.1409 14.762 38 15.8024 38H32.1964C33.2367 38 34.088 37.1409 34.088 36.0909V17.6364L26.5215 10Z" fill="white"/>
</mask>
<g mask="url(#mask3_4766_38692)">
<path d="M26.5214 10V15.7273C26.5214 16.782 27.3679 17.6364 28.413 17.6364H34.0878L26.5214 10Z" fill="#87CEAC"/>
</g>
<mask id="mask4_4766_38692" style="mask-type:luminance" maskUnits="userSpaceOnUse" x="13" y="10" width="22" height="28">
<path d="M26.5215 10H15.8024C14.762 10 13.9108 10.8591 13.9108 11.9091V36.0909C13.9108 37.1409 14.762 38 15.8024 38H32.1964C33.2367 38 34.088 37.1409 34.088 36.0909V17.6364L26.5215 10Z" fill="white"/>
</mask>
<g mask="url(#mask4_4766_38692)">
<path d="M15.8024 10C14.7621 10 13.9108 10.8591 13.9108 11.9091V12.0682C13.9108 11.0182 14.7621 10.1591 15.8024 10.1591H26.5216V10H15.8024Z" fill="white" fill-opacity="0.2"/>
</g>
<mask id="mask5_4766_38692" style="mask-type:luminance" maskUnits="userSpaceOnUse" x="13" y="10" width="22" height="28">
<path d="M26.5215 10H15.8024C14.762 10 13.9108 10.8591 13.9108 11.9091V36.0909C13.9108 37.1409 14.762 38 15.8024 38H32.1964C33.2367 38 34.088 37.1409 34.088 36.0909V17.6364L26.5215 10Z" fill="white"/>
</mask>
<g mask="url(#mask5_4766_38692)">
<path d="M32.1961 37.8407H15.8021C14.7617 37.8407 13.9105 36.9816 13.9105 35.9316V36.0907C13.9105 37.1407 14.7617 37.9998 15.8021 37.9998H32.1961C33.2365 37.9998 34.0877 37.1407 34.0877 36.0907V35.9316C34.0877 36.9816 33.2365 37.8407 32.1961 37.8407Z" fill="#263238" fill-opacity="0.2"/>
</g>
<mask id="mask6_4766_38692" style="mask-type:luminance" maskUnits="userSpaceOnUse" x="13" y="10" width="22" height="28">
<path d="M26.5215 10H15.8024C14.762 10 13.9108 10.8591 13.9108 11.9091V36.0909C13.9108 37.1409 14.762 38 15.8024 38H32.1964C33.2367 38 34.088 37.1409 34.088 36.0909V17.6364L26.5215 10Z" fill="white"/>
</mask>
<g mask="url(#mask6_4766_38692)">
<path d="M28.4129 17.6368C27.3677 17.6368 26.5212 16.7824 26.5212 15.7277V15.8868C26.5212 16.9415 27.3677 17.7958 28.4129 17.7958H34.0877V17.6368H28.4129Z" fill="#263238" fill-opacity="0.1"/>
</g>
<path d="M26.5218 10H15.8026C14.7622 10 13.911 10.8591 13.911 11.9091V36.0909C13.911 37.1409 14.7622 38 15.8026 38H32.1966C33.237 38 34.0882 37.1409 34.0882 36.0909V17.6364L26.5218 10Z" fill="url(#paint1_radial_4766_38692)"/>
<defs>
<linearGradient id="paint0_linear_4766_38692" x1="377.77" y1="77.8374" x2="377.77" y2="724.814" gradientUnits="userSpaceOnUse">
<stop stop-color="#263238" stop-opacity="0.2"/>
<stop offset="1" stop-color="#263238" stop-opacity="0.02"/>
</linearGradient>
<radialGradient id="paint1_radial_4766_38692" cx="0" cy="0" r="1" gradientUnits="userSpaceOnUse" gradientTransform="translate(77.8334 65.3403) scale(3253.54 3283.61)">
<stop stop-color="white" stop-opacity="0.1"/>
<stop offset="1" stop-color="white" stop-opacity="0"/>
</radialGradient>
</defs>
</svg>
